<mxfile host="app.diagrams.net" modified="2023-09-28T13:56:39.299Z" agent="Mozilla/5.0 (Macintosh; Intel Mac OS X 10_15_7) AppleWebKit/537.36 (KHTML, like Gecko) Chrome/117.0.0.0 Safari/537.36" version="21.8.0" etag="0G9Nx7grWxVev_5J3Dv1" type="github">
  <diagram name="Page-1" id="tnWadI1G2P1vrE6pxGKQ">
    <mxGraphModel>
      <root>
        <mxCell id="0" />
        <mxCell id="1" parent="0" />
      </root>
    </mxGraphModel>
  </diagram>
</mxfile>
